<mxfile host="app.diagrams.net" agent="Mozilla/5.0 (Windows NT 10.0; Win64; x64) AppleWebKit/537.36 (KHTML, like Gecko) Chrome/136.0.0.0 Safari/537.36 Edg/136.0.0.0" version="25.0.3">
  <diagram id="C5RBs43oDa-KdzZeNtuy" name="Page-1">
    <mxGraphModel dx="3437" dy="944" grid="1" gridSize="10" guides="1" tooltips="1" connect="1" arrows="1" fold="1" page="1" pageScale="1" pageWidth="827" pageHeight="1169" math="0" shadow="0">
      <root>
        <mxCell id="WIyWlLk6GJQsqaUBKTNV-0" />
        <mxCell id="WIyWlLk6GJQsqaUBKTNV-1" parent="WIyWlLk6GJQsqaUBKTNV-0" />
        <mxCell id="vCW_MwngGzxrIVZmUVN0-2" value="" style="edgeStyle=orthogonalEdgeStyle;rounded=0;orthogonalLoop=1;jettySize=auto;html=1;" edge="1" parent="WIyWlLk6GJQsqaUBKTNV-1" source="vCW_MwngGzxrIVZmUVN0-0" target="vCW_MwngGzxrIVZmUVN0-1">
          <mxGeometry relative="1" as="geometry" />
        </mxCell>
        <mxCell id="vCW_MwngGzxrIVZmUVN0-0" value="Start" style="ellipse;whiteSpace=wrap;html=1;" vertex="1" parent="WIyWlLk6GJQsqaUBKTNV-1">
          <mxGeometry x="354" y="30" width="120" height="80" as="geometry" />
        </mxCell>
        <mxCell id="vCW_MwngGzxrIVZmUVN0-4" value="" style="edgeStyle=orthogonalEdgeStyle;rounded=0;orthogonalLoop=1;jettySize=auto;html=1;" edge="1" parent="WIyWlLk6GJQsqaUBKTNV-1" source="vCW_MwngGzxrIVZmUVN0-1" target="vCW_MwngGzxrIVZmUVN0-3">
          <mxGeometry relative="1" as="geometry" />
        </mxCell>
        <mxCell id="vCW_MwngGzxrIVZmUVN0-1" value="Login Page" style="rounded=0;whiteSpace=wrap;html=1;" vertex="1" parent="WIyWlLk6GJQsqaUBKTNV-1">
          <mxGeometry x="354" y="170" width="120" height="60" as="geometry" />
        </mxCell>
        <mxCell id="vCW_MwngGzxrIVZmUVN0-6" value="Yes" style="edgeStyle=orthogonalEdgeStyle;rounded=0;orthogonalLoop=1;jettySize=auto;html=1;entryX=1;entryY=0.5;entryDx=0;entryDy=0;" edge="1" parent="WIyWlLk6GJQsqaUBKTNV-1" source="vCW_MwngGzxrIVZmUVN0-3" target="vCW_MwngGzxrIVZmUVN0-7">
          <mxGeometry x="0.0625" relative="1" as="geometry">
            <mxPoint x="314" y="340" as="targetPoint" />
            <mxPoint as="offset" />
          </mxGeometry>
        </mxCell>
        <mxCell id="vCW_MwngGzxrIVZmUVN0-9" value="No" style="edgeStyle=orthogonalEdgeStyle;rounded=0;orthogonalLoop=1;jettySize=auto;html=1;" edge="1" parent="WIyWlLk6GJQsqaUBKTNV-1" source="vCW_MwngGzxrIVZmUVN0-3" target="vCW_MwngGzxrIVZmUVN0-8">
          <mxGeometry x="-0.1333" relative="1" as="geometry">
            <mxPoint as="offset" />
          </mxGeometry>
        </mxCell>
        <mxCell id="vCW_MwngGzxrIVZmUVN0-3" value="Have an Account?" style="rhombus;whiteSpace=wrap;html=1;" vertex="1" parent="WIyWlLk6GJQsqaUBKTNV-1">
          <mxGeometry x="374" y="300" width="80" height="80" as="geometry" />
        </mxCell>
        <mxCell id="vCW_MwngGzxrIVZmUVN0-51" value="" style="edgeStyle=orthogonalEdgeStyle;rounded=0;orthogonalLoop=1;jettySize=auto;html=1;" edge="1" parent="WIyWlLk6GJQsqaUBKTNV-1" source="vCW_MwngGzxrIVZmUVN0-7">
          <mxGeometry relative="1" as="geometry">
            <mxPoint x="90" y="340" as="targetPoint" />
          </mxGeometry>
        </mxCell>
        <mxCell id="vCW_MwngGzxrIVZmUVN0-7" value="Login Account" style="rounded=1;whiteSpace=wrap;html=1;" vertex="1" parent="WIyWlLk6GJQsqaUBKTNV-1">
          <mxGeometry x="190" y="310" width="120" height="60" as="geometry" />
        </mxCell>
        <mxCell id="vCW_MwngGzxrIVZmUVN0-11" value="" style="edgeStyle=orthogonalEdgeStyle;rounded=0;orthogonalLoop=1;jettySize=auto;html=1;" edge="1" parent="WIyWlLk6GJQsqaUBKTNV-1" source="vCW_MwngGzxrIVZmUVN0-8" target="vCW_MwngGzxrIVZmUVN0-10">
          <mxGeometry relative="1" as="geometry" />
        </mxCell>
        <mxCell id="vCW_MwngGzxrIVZmUVN0-8" value="Register Page" style="whiteSpace=wrap;html=1;" vertex="1" parent="WIyWlLk6GJQsqaUBKTNV-1">
          <mxGeometry x="514" y="310" width="120" height="60" as="geometry" />
        </mxCell>
        <mxCell id="vCW_MwngGzxrIVZmUVN0-13" value="" style="edgeStyle=orthogonalEdgeStyle;rounded=0;orthogonalLoop=1;jettySize=auto;html=1;" edge="1" parent="WIyWlLk6GJQsqaUBKTNV-1" source="vCW_MwngGzxrIVZmUVN0-10" target="vCW_MwngGzxrIVZmUVN0-12">
          <mxGeometry relative="1" as="geometry" />
        </mxCell>
        <mxCell id="vCW_MwngGzxrIVZmUVN0-16" style="edgeStyle=orthogonalEdgeStyle;rounded=0;orthogonalLoop=1;jettySize=auto;html=1;entryX=1;entryY=0.5;entryDx=0;entryDy=0;" edge="1" parent="WIyWlLk6GJQsqaUBKTNV-1" source="vCW_MwngGzxrIVZmUVN0-10" target="vCW_MwngGzxrIVZmUVN0-1">
          <mxGeometry relative="1" as="geometry">
            <Array as="points">
              <mxPoint x="730" y="440" />
              <mxPoint x="730" y="200" />
            </Array>
          </mxGeometry>
        </mxCell>
        <mxCell id="vCW_MwngGzxrIVZmUVN0-10" value="Create Account" style="rounded=1;whiteSpace=wrap;html=1;" vertex="1" parent="WIyWlLk6GJQsqaUBKTNV-1">
          <mxGeometry x="514" y="410" width="120" height="60" as="geometry" />
        </mxCell>
        <mxCell id="vCW_MwngGzxrIVZmUVN0-18" value="Access Database" style="edgeStyle=orthogonalEdgeStyle;rounded=0;orthogonalLoop=1;jettySize=auto;html=1;entryX=0.5;entryY=1;entryDx=0;entryDy=0;" edge="1" parent="WIyWlLk6GJQsqaUBKTNV-1" source="vCW_MwngGzxrIVZmUVN0-12" target="vCW_MwngGzxrIVZmUVN0-7">
          <mxGeometry x="-0.3636" relative="1" as="geometry">
            <mxPoint as="offset" />
          </mxGeometry>
        </mxCell>
        <mxCell id="vCW_MwngGzxrIVZmUVN0-12" value="Database" style="shape=cylinder3;whiteSpace=wrap;html=1;boundedLbl=1;backgroundOutline=1;size=15;" vertex="1" parent="WIyWlLk6GJQsqaUBKTNV-1">
          <mxGeometry x="544" y="520" width="60" height="80" as="geometry" />
        </mxCell>
        <mxCell id="vCW_MwngGzxrIVZmUVN0-26" value="" style="edgeStyle=orthogonalEdgeStyle;rounded=0;orthogonalLoop=1;jettySize=auto;html=1;" edge="1" parent="WIyWlLk6GJQsqaUBKTNV-1" source="vCW_MwngGzxrIVZmUVN0-22" target="vCW_MwngGzxrIVZmUVN0-25">
          <mxGeometry relative="1" as="geometry" />
        </mxCell>
        <mxCell id="vCW_MwngGzxrIVZmUVN0-28" value="" style="edgeStyle=orthogonalEdgeStyle;rounded=0;orthogonalLoop=1;jettySize=auto;html=1;" edge="1" parent="WIyWlLk6GJQsqaUBKTNV-1" source="vCW_MwngGzxrIVZmUVN0-22" target="vCW_MwngGzxrIVZmUVN0-27">
          <mxGeometry relative="1" as="geometry" />
        </mxCell>
        <mxCell id="vCW_MwngGzxrIVZmUVN0-30" value="" style="edgeStyle=orthogonalEdgeStyle;rounded=0;orthogonalLoop=1;jettySize=auto;html=1;" edge="1" parent="WIyWlLk6GJQsqaUBKTNV-1" source="vCW_MwngGzxrIVZmUVN0-22" target="vCW_MwngGzxrIVZmUVN0-29">
          <mxGeometry relative="1" as="geometry" />
        </mxCell>
        <mxCell id="vCW_MwngGzxrIVZmUVN0-22" value="Dashboard/Home" style="rounded=0;whiteSpace=wrap;html=1;" vertex="1" parent="WIyWlLk6GJQsqaUBKTNV-1">
          <mxGeometry x="-260" y="310" width="120" height="60" as="geometry" />
        </mxCell>
        <mxCell id="vCW_MwngGzxrIVZmUVN0-34" value="" style="edgeStyle=orthogonalEdgeStyle;rounded=0;orthogonalLoop=1;jettySize=auto;html=1;" edge="1" parent="WIyWlLk6GJQsqaUBKTNV-1" source="vCW_MwngGzxrIVZmUVN0-25" target="vCW_MwngGzxrIVZmUVN0-33">
          <mxGeometry relative="1" as="geometry" />
        </mxCell>
        <mxCell id="vCW_MwngGzxrIVZmUVN0-41" value="" style="edgeStyle=orthogonalEdgeStyle;rounded=0;orthogonalLoop=1;jettySize=auto;html=1;" edge="1" parent="WIyWlLk6GJQsqaUBKTNV-1" source="vCW_MwngGzxrIVZmUVN0-25" target="vCW_MwngGzxrIVZmUVN0-40">
          <mxGeometry relative="1" as="geometry" />
        </mxCell>
        <mxCell id="vCW_MwngGzxrIVZmUVN0-43" value="" style="edgeStyle=orthogonalEdgeStyle;rounded=0;orthogonalLoop=1;jettySize=auto;html=1;" edge="1" parent="WIyWlLk6GJQsqaUBKTNV-1" source="vCW_MwngGzxrIVZmUVN0-25" target="vCW_MwngGzxrIVZmUVN0-42">
          <mxGeometry relative="1" as="geometry" />
        </mxCell>
        <mxCell id="vCW_MwngGzxrIVZmUVN0-25" value="Profile" style="rounded=0;whiteSpace=wrap;html=1;" vertex="1" parent="WIyWlLk6GJQsqaUBKTNV-1">
          <mxGeometry x="-663" y="310" width="120" height="60" as="geometry" />
        </mxCell>
        <mxCell id="vCW_MwngGzxrIVZmUVN0-27" value="Appointments" style="rounded=0;whiteSpace=wrap;html=1;" vertex="1" parent="WIyWlLk6GJQsqaUBKTNV-1">
          <mxGeometry x="-260" y="470" width="120" height="60" as="geometry" />
        </mxCell>
        <mxCell id="vCW_MwngGzxrIVZmUVN0-49" value="" style="edgeStyle=orthogonalEdgeStyle;rounded=0;orthogonalLoop=1;jettySize=auto;html=1;" edge="1" parent="WIyWlLk6GJQsqaUBKTNV-1" source="vCW_MwngGzxrIVZmUVN0-29" target="vCW_MwngGzxrIVZmUVN0-48">
          <mxGeometry relative="1" as="geometry" />
        </mxCell>
        <mxCell id="vCW_MwngGzxrIVZmUVN0-29" value="Contact Us" style="rounded=0;whiteSpace=wrap;html=1;" vertex="1" parent="WIyWlLk6GJQsqaUBKTNV-1">
          <mxGeometry x="-260" y="170" width="120" height="60" as="geometry" />
        </mxCell>
        <mxCell id="vCW_MwngGzxrIVZmUVN0-36" value="Yes" style="edgeStyle=orthogonalEdgeStyle;rounded=0;orthogonalLoop=1;jettySize=auto;html=1;" edge="1" parent="WIyWlLk6GJQsqaUBKTNV-1" source="vCW_MwngGzxrIVZmUVN0-33" target="vCW_MwngGzxrIVZmUVN0-35">
          <mxGeometry relative="1" as="geometry" />
        </mxCell>
        <mxCell id="vCW_MwngGzxrIVZmUVN0-37" style="edgeStyle=orthogonalEdgeStyle;rounded=0;orthogonalLoop=1;jettySize=auto;html=1;" edge="1" parent="WIyWlLk6GJQsqaUBKTNV-1" source="vCW_MwngGzxrIVZmUVN0-33">
          <mxGeometry relative="1" as="geometry">
            <mxPoint x="-543" y="340" as="targetPoint" />
            <Array as="points">
              <mxPoint x="-462" y="200" />
            </Array>
          </mxGeometry>
        </mxCell>
        <mxCell id="vCW_MwngGzxrIVZmUVN0-38" value="No" style="edgeLabel;html=1;align=center;verticalAlign=middle;resizable=0;points=[];" vertex="1" connectable="0" parent="vCW_MwngGzxrIVZmUVN0-37">
          <mxGeometry x="-0.6507" y="-1" relative="1" as="geometry">
            <mxPoint y="-1" as="offset" />
          </mxGeometry>
        </mxCell>
        <mxCell id="vCW_MwngGzxrIVZmUVN0-33" value="Logout?" style="rhombus;whiteSpace=wrap;html=1;rounded=0;" vertex="1" parent="WIyWlLk6GJQsqaUBKTNV-1">
          <mxGeometry x="-643" y="160" width="80" height="80" as="geometry" />
        </mxCell>
        <mxCell id="vCW_MwngGzxrIVZmUVN0-35" value="End" style="ellipse;whiteSpace=wrap;html=1;" vertex="1" parent="WIyWlLk6GJQsqaUBKTNV-1">
          <mxGeometry x="-653" y="30" width="100" height="70" as="geometry" />
        </mxCell>
        <mxCell id="vCW_MwngGzxrIVZmUVN0-45" value="" style="edgeStyle=orthogonalEdgeStyle;rounded=0;orthogonalLoop=1;jettySize=auto;html=1;" edge="1" parent="WIyWlLk6GJQsqaUBKTNV-1" source="vCW_MwngGzxrIVZmUVN0-40">
          <mxGeometry relative="1" as="geometry">
            <mxPoint x="-940" y="340" as="targetPoint" />
          </mxGeometry>
        </mxCell>
        <mxCell id="vCW_MwngGzxrIVZmUVN0-40" value="Account Information" style="rounded=0;whiteSpace=wrap;html=1;" vertex="1" parent="WIyWlLk6GJQsqaUBKTNV-1">
          <mxGeometry x="-863" y="310" width="120" height="60" as="geometry" />
        </mxCell>
        <mxCell id="vCW_MwngGzxrIVZmUVN0-47" value="" style="edgeStyle=orthogonalEdgeStyle;rounded=0;orthogonalLoop=1;jettySize=auto;html=1;" edge="1" parent="WIyWlLk6GJQsqaUBKTNV-1" source="vCW_MwngGzxrIVZmUVN0-42" target="vCW_MwngGzxrIVZmUVN0-46">
          <mxGeometry relative="1" as="geometry" />
        </mxCell>
        <mxCell id="vCW_MwngGzxrIVZmUVN0-42" value="Preferences" style="rounded=0;whiteSpace=wrap;html=1;" vertex="1" parent="WIyWlLk6GJQsqaUBKTNV-1">
          <mxGeometry x="-663" y="450" width="120" height="60" as="geometry" />
        </mxCell>
        <mxCell id="vCW_MwngGzxrIVZmUVN0-44" value="Change User Data" style="rounded=1;whiteSpace=wrap;html=1;" vertex="1" parent="WIyWlLk6GJQsqaUBKTNV-1">
          <mxGeometry x="-1060" y="310" width="120" height="60" as="geometry" />
        </mxCell>
        <mxCell id="vCW_MwngGzxrIVZmUVN0-46" value="Change Website Design" style="rounded=1;whiteSpace=wrap;html=1;" vertex="1" parent="WIyWlLk6GJQsqaUBKTNV-1">
          <mxGeometry x="-663" y="570" width="120" height="60" as="geometry" />
        </mxCell>
        <mxCell id="vCW_MwngGzxrIVZmUVN0-48" value="Email, Number, Name of the Company&#39;Bsuiness" style="rounded=0;whiteSpace=wrap;html=1;" vertex="1" parent="WIyWlLk6GJQsqaUBKTNV-1">
          <mxGeometry x="-260" y="60" width="120" height="60" as="geometry" />
        </mxCell>
        <mxCell id="vCW_MwngGzxrIVZmUVN0-53" style="edgeStyle=orthogonalEdgeStyle;rounded=0;orthogonalLoop=1;jettySize=auto;html=1;entryX=1;entryY=0.5;entryDx=0;entryDy=0;" edge="1" parent="WIyWlLk6GJQsqaUBKTNV-1" source="vCW_MwngGzxrIVZmUVN0-52" target="vCW_MwngGzxrIVZmUVN0-22">
          <mxGeometry relative="1" as="geometry" />
        </mxCell>
        <mxCell id="vCW_MwngGzxrIVZmUVN0-54" value="Client" style="edgeLabel;html=1;align=center;verticalAlign=middle;resizable=0;points=[];" vertex="1" connectable="0" parent="vCW_MwngGzxrIVZmUVN0-53">
          <mxGeometry x="-0.5201" y="1" relative="1" as="geometry">
            <mxPoint x="-16" y="-1" as="offset" />
          </mxGeometry>
        </mxCell>
        <mxCell id="vCW_MwngGzxrIVZmUVN0-79" style="edgeStyle=orthogonalEdgeStyle;rounded=0;orthogonalLoop=1;jettySize=auto;html=1;" edge="1" parent="WIyWlLk6GJQsqaUBKTNV-1" source="vCW_MwngGzxrIVZmUVN0-52" target="vCW_MwngGzxrIVZmUVN0-58">
          <mxGeometry relative="1" as="geometry" />
        </mxCell>
        <mxCell id="vCW_MwngGzxrIVZmUVN0-80" value="Staff" style="edgeLabel;html=1;align=center;verticalAlign=middle;resizable=0;points=[];" vertex="1" connectable="0" parent="vCW_MwngGzxrIVZmUVN0-79">
          <mxGeometry x="-0.3317" y="-2" relative="1" as="geometry">
            <mxPoint as="offset" />
          </mxGeometry>
        </mxCell>
        <mxCell id="vCW_MwngGzxrIVZmUVN0-52" value="Client or Staff" style="rhombus;whiteSpace=wrap;html=1;" vertex="1" parent="WIyWlLk6GJQsqaUBKTNV-1">
          <mxGeometry y="295" width="90" height="90" as="geometry" />
        </mxCell>
        <mxCell id="vCW_MwngGzxrIVZmUVN0-55" value="" style="edgeStyle=orthogonalEdgeStyle;rounded=0;orthogonalLoop=1;jettySize=auto;html=1;" edge="1" parent="WIyWlLk6GJQsqaUBKTNV-1" source="vCW_MwngGzxrIVZmUVN0-58" target="vCW_MwngGzxrIVZmUVN0-62">
          <mxGeometry relative="1" as="geometry" />
        </mxCell>
        <mxCell id="vCW_MwngGzxrIVZmUVN0-56" value="" style="edgeStyle=orthogonalEdgeStyle;rounded=0;orthogonalLoop=1;jettySize=auto;html=1;" edge="1" parent="WIyWlLk6GJQsqaUBKTNV-1" source="vCW_MwngGzxrIVZmUVN0-58" target="vCW_MwngGzxrIVZmUVN0-63">
          <mxGeometry relative="1" as="geometry" />
        </mxCell>
        <mxCell id="vCW_MwngGzxrIVZmUVN0-57" value="" style="edgeStyle=orthogonalEdgeStyle;rounded=0;orthogonalLoop=1;jettySize=auto;html=1;" edge="1" parent="WIyWlLk6GJQsqaUBKTNV-1" source="vCW_MwngGzxrIVZmUVN0-58" target="vCW_MwngGzxrIVZmUVN0-65">
          <mxGeometry relative="1" as="geometry" />
        </mxCell>
        <mxCell id="vCW_MwngGzxrIVZmUVN0-58" value="Dashboard/Home" style="rounded=0;whiteSpace=wrap;html=1;" vertex="1" parent="WIyWlLk6GJQsqaUBKTNV-1">
          <mxGeometry x="-20" y="850" width="120" height="60" as="geometry" />
        </mxCell>
        <mxCell id="vCW_MwngGzxrIVZmUVN0-59" value="" style="edgeStyle=orthogonalEdgeStyle;rounded=0;orthogonalLoop=1;jettySize=auto;html=1;" edge="1" parent="WIyWlLk6GJQsqaUBKTNV-1" source="vCW_MwngGzxrIVZmUVN0-62" target="vCW_MwngGzxrIVZmUVN0-69">
          <mxGeometry relative="1" as="geometry" />
        </mxCell>
        <mxCell id="vCW_MwngGzxrIVZmUVN0-60" value="" style="edgeStyle=orthogonalEdgeStyle;rounded=0;orthogonalLoop=1;jettySize=auto;html=1;" edge="1" parent="WIyWlLk6GJQsqaUBKTNV-1" source="vCW_MwngGzxrIVZmUVN0-62" target="vCW_MwngGzxrIVZmUVN0-72">
          <mxGeometry relative="1" as="geometry" />
        </mxCell>
        <mxCell id="vCW_MwngGzxrIVZmUVN0-61" value="" style="edgeStyle=orthogonalEdgeStyle;rounded=0;orthogonalLoop=1;jettySize=auto;html=1;" edge="1" parent="WIyWlLk6GJQsqaUBKTNV-1" source="vCW_MwngGzxrIVZmUVN0-62" target="vCW_MwngGzxrIVZmUVN0-74">
          <mxGeometry relative="1" as="geometry" />
        </mxCell>
        <mxCell id="vCW_MwngGzxrIVZmUVN0-62" value="Profile" style="rounded=0;whiteSpace=wrap;html=1;" vertex="1" parent="WIyWlLk6GJQsqaUBKTNV-1">
          <mxGeometry x="-223" y="850" width="120" height="60" as="geometry" />
        </mxCell>
        <mxCell id="vCW_MwngGzxrIVZmUVN0-63" value="Appointments" style="rounded=0;whiteSpace=wrap;html=1;" vertex="1" parent="WIyWlLk6GJQsqaUBKTNV-1">
          <mxGeometry x="180" y="1110" width="120" height="60" as="geometry" />
        </mxCell>
        <mxCell id="vCW_MwngGzxrIVZmUVN0-64" value="" style="edgeStyle=orthogonalEdgeStyle;rounded=0;orthogonalLoop=1;jettySize=auto;html=1;" edge="1" parent="WIyWlLk6GJQsqaUBKTNV-1" source="vCW_MwngGzxrIVZmUVN0-65" target="vCW_MwngGzxrIVZmUVN0-77">
          <mxGeometry relative="1" as="geometry" />
        </mxCell>
        <mxCell id="vCW_MwngGzxrIVZmUVN0-65" value="Contact Us" style="rounded=0;whiteSpace=wrap;html=1;" vertex="1" parent="WIyWlLk6GJQsqaUBKTNV-1">
          <mxGeometry x="180" y="670" width="120" height="60" as="geometry" />
        </mxCell>
        <mxCell id="vCW_MwngGzxrIVZmUVN0-66" value="Yes" style="edgeStyle=orthogonalEdgeStyle;rounded=0;orthogonalLoop=1;jettySize=auto;html=1;" edge="1" parent="WIyWlLk6GJQsqaUBKTNV-1" source="vCW_MwngGzxrIVZmUVN0-69" target="vCW_MwngGzxrIVZmUVN0-70">
          <mxGeometry relative="1" as="geometry" />
        </mxCell>
        <mxCell id="vCW_MwngGzxrIVZmUVN0-67" style="edgeStyle=orthogonalEdgeStyle;rounded=0;orthogonalLoop=1;jettySize=auto;html=1;entryX=1;entryY=0.5;entryDx=0;entryDy=0;" edge="1" parent="WIyWlLk6GJQsqaUBKTNV-1" source="vCW_MwngGzxrIVZmUVN0-69" target="vCW_MwngGzxrIVZmUVN0-62">
          <mxGeometry relative="1" as="geometry">
            <mxPoint x="-70" y="990" as="targetPoint" />
            <Array as="points">
              <mxPoint x="-60" y="745" />
              <mxPoint x="-60" y="880" />
            </Array>
          </mxGeometry>
        </mxCell>
        <mxCell id="vCW_MwngGzxrIVZmUVN0-68" value="No" style="edgeLabel;html=1;align=center;verticalAlign=middle;resizable=0;points=[];" vertex="1" connectable="0" parent="vCW_MwngGzxrIVZmUVN0-67">
          <mxGeometry x="-0.6507" y="-1" relative="1" as="geometry">
            <mxPoint x="-19" y="-1" as="offset" />
          </mxGeometry>
        </mxCell>
        <mxCell id="vCW_MwngGzxrIVZmUVN0-69" value="Logout?" style="rhombus;whiteSpace=wrap;html=1;rounded=0;" vertex="1" parent="WIyWlLk6GJQsqaUBKTNV-1">
          <mxGeometry x="-203" y="705" width="80" height="80" as="geometry" />
        </mxCell>
        <mxCell id="vCW_MwngGzxrIVZmUVN0-70" value="End" style="ellipse;whiteSpace=wrap;html=1;" vertex="1" parent="WIyWlLk6GJQsqaUBKTNV-1">
          <mxGeometry x="-213" y="585" width="100" height="70" as="geometry" />
        </mxCell>
        <mxCell id="vCW_MwngGzxrIVZmUVN0-84" value="" style="edgeStyle=orthogonalEdgeStyle;rounded=0;orthogonalLoop=1;jettySize=auto;html=1;" edge="1" parent="WIyWlLk6GJQsqaUBKTNV-1" source="vCW_MwngGzxrIVZmUVN0-72" target="vCW_MwngGzxrIVZmUVN0-83">
          <mxGeometry relative="1" as="geometry" />
        </mxCell>
        <mxCell id="vCW_MwngGzxrIVZmUVN0-86" value="" style="edgeStyle=orthogonalEdgeStyle;rounded=0;orthogonalLoop=1;jettySize=auto;html=1;" edge="1" parent="WIyWlLk6GJQsqaUBKTNV-1" source="vCW_MwngGzxrIVZmUVN0-72" target="vCW_MwngGzxrIVZmUVN0-85">
          <mxGeometry relative="1" as="geometry" />
        </mxCell>
        <mxCell id="vCW_MwngGzxrIVZmUVN0-72" value="Account Information" style="rounded=0;whiteSpace=wrap;html=1;" vertex="1" parent="WIyWlLk6GJQsqaUBKTNV-1">
          <mxGeometry x="-430" y="850" width="120" height="60" as="geometry" />
        </mxCell>
        <mxCell id="vCW_MwngGzxrIVZmUVN0-73" value="" style="edgeStyle=orthogonalEdgeStyle;rounded=0;orthogonalLoop=1;jettySize=auto;html=1;" edge="1" parent="WIyWlLk6GJQsqaUBKTNV-1" source="vCW_MwngGzxrIVZmUVN0-74" target="vCW_MwngGzxrIVZmUVN0-76">
          <mxGeometry relative="1" as="geometry" />
        </mxCell>
        <mxCell id="vCW_MwngGzxrIVZmUVN0-74" value="Preferences" style="rounded=0;whiteSpace=wrap;html=1;" vertex="1" parent="WIyWlLk6GJQsqaUBKTNV-1">
          <mxGeometry x="-223" y="1090" width="120" height="60" as="geometry" />
        </mxCell>
        <mxCell id="vCW_MwngGzxrIVZmUVN0-76" value="Change Website Design" style="rounded=1;whiteSpace=wrap;html=1;" vertex="1" parent="WIyWlLk6GJQsqaUBKTNV-1">
          <mxGeometry x="-223" y="1210" width="120" height="60" as="geometry" />
        </mxCell>
        <mxCell id="vCW_MwngGzxrIVZmUVN0-77" value="Email, Number, Name of the Company&#39;Bsuiness" style="rounded=0;whiteSpace=wrap;html=1;" vertex="1" parent="WIyWlLk6GJQsqaUBKTNV-1">
          <mxGeometry x="390" y="690" width="120" height="60" as="geometry" />
        </mxCell>
        <mxCell id="vCW_MwngGzxrIVZmUVN0-88" value="" style="edgeStyle=orthogonalEdgeStyle;rounded=0;orthogonalLoop=1;jettySize=auto;html=1;" edge="1" parent="WIyWlLk6GJQsqaUBKTNV-1" source="vCW_MwngGzxrIVZmUVN0-83" target="vCW_MwngGzxrIVZmUVN0-87">
          <mxGeometry relative="1" as="geometry" />
        </mxCell>
        <mxCell id="vCW_MwngGzxrIVZmUVN0-83" value="Client Information" style="whiteSpace=wrap;html=1;rounded=0;" vertex="1" parent="WIyWlLk6GJQsqaUBKTNV-1">
          <mxGeometry x="-630" y="850" width="120" height="60" as="geometry" />
        </mxCell>
        <mxCell id="vCW_MwngGzxrIVZmUVN0-90" value="" style="edgeStyle=orthogonalEdgeStyle;rounded=0;orthogonalLoop=1;jettySize=auto;html=1;" edge="1" parent="WIyWlLk6GJQsqaUBKTNV-1" source="vCW_MwngGzxrIVZmUVN0-85" target="vCW_MwngGzxrIVZmUVN0-89">
          <mxGeometry relative="1" as="geometry" />
        </mxCell>
        <mxCell id="vCW_MwngGzxrIVZmUVN0-85" value="User Information" style="whiteSpace=wrap;html=1;rounded=0;" vertex="1" parent="WIyWlLk6GJQsqaUBKTNV-1">
          <mxGeometry x="-430" y="990" width="120" height="60" as="geometry" />
        </mxCell>
        <mxCell id="vCW_MwngGzxrIVZmUVN0-87" value="Change Client Data" style="rounded=1;whiteSpace=wrap;html=1;" vertex="1" parent="WIyWlLk6GJQsqaUBKTNV-1">
          <mxGeometry x="-800" y="850" width="120" height="60" as="geometry" />
        </mxCell>
        <mxCell id="vCW_MwngGzxrIVZmUVN0-89" value="Change User Data" style="rounded=1;whiteSpace=wrap;html=1;" vertex="1" parent="WIyWlLk6GJQsqaUBKTNV-1">
          <mxGeometry x="-430" y="1090" width="120" height="60" as="geometry" />
        </mxCell>
      </root>
    </mxGraphModel>
  </diagram>
</mxfile>
